<svg xmlns="http://www.w3.org/2000/svg" viewBox="0 0 1000 1000">
  <style>
    @media (prefers-color-scheme: dark) {
      path {
        fill: white;
      }
    }
  </style>
  <path fill="currentColor" d="m475.2 319.1q1-7 5.6-11.7 4.5-4.8 10.3-6.8 6.1-2.1 12.3-1.8 6.5 0.2 11.3 3.1 5.3 2.5 8 7.8 2.8 5.2 1.5 12.7-5.5 28.7-15.2 50.3-9.3 21.6-22.1 36.9-12.7 14.8-28.1 23.1-14.9 8.3-31.6 10.7-14.6 2.2-27.5-0.4-12.5-2.6-22.5-9.6-9.5-7.1-15.9-17.8-6.5-11.2-8.7-26.3-1.3-8.3-1-17.6 0.2-9.3 2-18.9l32.1-160.8q1-4.6 0.9-7.8-0.1-3.2-0.6-6.4-1.4-9.9-8.9-14.1-7.2-4.6-16.6-3.2-13.5 2-25.6 13.1-12.1 11.1-16.3 29.5v-0.4l-46.3 234.5q-1.4 12.3-7.6 20.1-6.1 7.8-14.1 11.4-7.5 3.5-16.1 3.1-8.6-0.7-15.3-5-6.7-4.2-10.2-11.8-3.5-7.6-1.4-18l59.7-304.8q1.4-9.9 10-14.8 8.5-4.9 18.2-5.1 10.1-0.3 18 4.2 8.4 4.4 9.3 13.2 6.2-7 12.9-11.2 6.6-4.6 13-7.2 6.9-3 12.8-3.9 5.9-1.3 10.3-1.5 14.4-0.9 27.4 2.4 13.4 2.9 23.7 9.9 10.7 6.5 17.6 17.6 7.2 10.7 9.4 25.3 2.2 15-1.1 30.9l-0.1-0.4-34.5 174.5q-1.2 5.4-0.3 11.8 1 6.7 5.7 10.9 4.6 4.1 11.8 3.1 15-2.2 26.2-22.1 11.6-19.9 17.6-50.7zm33.5-233.4l191.9-28.3q10.3-1.5 17 5.2 7 6.6 8 16.2 1.4 9.1-5 18.1-6.4 8.6-22.6 11.4l-59.3 8.8-54 278q-2.4 13.7-13.6 20.6-10.7 6.9-22.4 6.6-11.9-0.7-20.3-8.7-8.5-8.1-5.6-24.3l50.6-262.6-66.5 9.8q-11.1 1.6-18.5-4.9-7.1-7.1-8.1-16.2-0.9-9.2 5.5-17.8 6.8-9.1 22.9-11.9zm-174.1 510.9l191.9-28.3q10.3-1.5 17 5.2 7 6.6 8 16.2 1.4 9.1-5 18.1-6.4 8.6-22.6 11.4l-59.3 8.8-54 278q-2.5 13.7-13.6 20.6-10.7 6.8-22.5 6.6-11.8-0.7-20.3-8.8-8.4-8-5.6-24.2l50.7-262.6-66.5 9.8q-11.1 1.6-18.5-5-7.1-7-8.1-16.2-0.9-9.1 5.5-17.7 6.7-9.1 22.9-11.9zm352.6-54.8q15-2.3 28.7 0.2 14 1.9 25.4 7.9 11.8 5.6 20.4 14.8 9 8.8 14.3 19.8 6.6 14.7 2.1 25.5-4.1 10.7-13.4 15.7-9 5-20.2 3-11.3-2.4-18.2-13.5-6.7-9.5-14.3-14.4-7.6-5-16.8-4.4-3.6 0.1-8.5 2.4-4.6 1.9-8.9 5.8-3.9 3.4-6.7 9.1-2.5 5.2-1.5 11.5 1.6 11.1 11 22.6 9.7 11.1 23 21.7l5.5 4.5q10.6 8.9 21.3 18.3 10.7 9.3 19.9 20.1 9.3 10.7 15.6 23.5 6.8 12.8 9.1 28.2 3.3 23-3.6 44.6-6.9 21.7-21.7 39.2-14.4 17.5-34.9 29.4-20.5 11.9-44.2 15.4-22.6 3.4-44.6-0.7-21.7-4.5-39.5-15.6-17.5-11.6-29.7-29.1-12-17.7-14.7-41.6-1.6-11 2-19.3 4-8.6 10.6-13.2 7-5.1 15.3-5.9 8.7-1.3 16.1 2 7.8 3.3 13 11.5 5.2 7.7 5.9 20.5 1.5 10.7 6.3 18.5 5.2 7.7 12.8 12.7 8 4.5 17.5 6.3 10 1.7 20.7 0.2 9.5-1.4 18.4-6.4 9.4-5 16-12.5 6.9-7.9 10.3-18.1 3.3-10.5 1.5-22.4-2.6-17.8-15.6-31.7-12.9-13.8-30-27.9-9.7-8.3-19.5-16.9-9.7-8.7-18-18-7.9-9.8-13.9-20.2-5.6-10.9-7.5-23.9-0.9-5.6-0.9-11.2 0.3-6.2 1.4-12.4 2.6-15.7 10.4-28.6 7.8-12.9 18.9-22.6 11.1-9.7 24.7-15.8 14-6.5 28.7-8.6z" />
</svg>